<svg id="Layer_1" data-name="Layer 1" xmlns="http://www.w3.org/2000/svg" xmlns:xlink="http://www.w3.org/1999/xlink" viewBox="0 0 475.25 473.22"><defs><style>.cls-1,.cls-14{fill:none;}.cls-2{fill:#646464;}.cls-3{opacity:0.33;}.cls-4{fill:#4f4f4f;}.cls-5{fill:#5c5c5c;}.cls-6{fill:#232323;}.cls-7{fill:#d1d1d1;}.cls-8{fill:#e5e5e5;}.cls-9{fill:#d6d6d6;}.cls-10{fill:#bbb;}.cls-11{fill:#fff;}.cls-12{clip-path:url(#clip-path);}.cls-13{fill:#333;}.cls-14{stroke:#eaeaea;stroke-miterlimit:10;stroke-width:64px;}.cls-15{clip-path:url(#clip-path-2);}</style><clipPath id="clip-path"><path class="cls-1" d="M103.44,175.83c48.42,22.35,77.6,34.74,77.6,77.58a77.58,77.58,0,1,1-155.16,0h0C25.86,210.57,54.58,175.62,103.44,175.83Z"/></clipPath><clipPath id="clip-path-2"><path class="cls-1" d="M413.76,256.41a77.58,77.58,0,1,1-155.16,0h0c0-42.85,29.16-55.23,77.58-77.58C385,178.63,413.76,213.57,413.76,256.41Z"/></clipPath></defs><title>trumpicon-grey</title><path class="cls-2" d="M219.81,39.6c121.4,0,219.81,92.41,219.81,213.81S341.2,473.22,219.81,473.22,0,374.77,0,253.41,135.74,39.6,219.81,39.6Z"/><g class="cls-3"><line class="cls-1" x1="2.42" y1="319.37" x2="227.64" y2="203.48"/><path class="cls-4" d="M10.84,321.77S8.14,313,7.31,310.09l217.58-112,5.49,10.67Z"/></g><path class="cls-5" d="M439.62,253.41C439.62,132,341.21,39.6,219.81,39.6V473.22C341.2,473.22,439.62,374.77,439.62,253.41Z"/><g class="cls-3"><path class="cls-6" d="M219.81,214.23V200.71l42.71-24.55h0c30.73,16.72,69.76,20.2,108.78,3.51C401,167,415.49,155,415.69,154.83c0,0,5,9.78,5,10.15s-13,12.12-44.32,25.59c-40.9,17.58-79.91,18-113,1.1Z"/></g><path class="cls-7" d="M7.89,312C8.25,312,0,299.9,0,255.55,0,142.68,15.86,143.77,21.32,127.77c9.2-27.06,8.86-50.58,28.75-69.31C71.74,38,95.44,31,122.82,27.19c8.72-1.21,17.5-2.55,26.26-2.6,48.75-.27,97.53,1.05,146.23-.68,26.08-.93,52.17-1.47,78.24-2.57,23.18-1,46.94.07,69.44-5.77,27-7,19.49-13.28,29.36-15.55,1.89.33,1.9,2.31,2,3.51,2.1,27.75,1,58.36-8.47,84.11-5,13.67-76.35,148.35-203,90.86"/><polygon class="cls-8" points="297.39 316.43 219.81 356.85 142.23 316.43 168.09 262.55 271.53 262.55 297.39 316.43"/><polygon class="cls-9" points="271.53 262.55 219.81 262.55 219.81 356.85 297.39 316.43 271.53 262.55"/><path class="cls-10" d="M341.71,22.46l-2,1.67c-1.54,1.31-32.66,27.39-65.3,27.39a54.72,54.72,0,0,1-15.59-2.19L9.26,153.23c.1-1.1,4.42-11.83,6.41-14.58L256.48,38.4a5.5,5.5,0,0,1,3.89-.13c22.42,7.67,48.41-6.06,62.29-15.25"/><path class="cls-10" d="M408.28,20.27l-2.36,2.82A219.63,219.63,0,0,1,362.27,61c-34.8,23-70.44,31.25-103.2,23.91L2.42,191.77s1-10.36,1.41-12.5L256.49,74.06a5.49,5.49,0,0,1,3.41-.27c30.55,7.4,62.88.06,96.07-21.82a219.55,219.55,0,0,0,37.2-31.2"/><path class="cls-10" d="M475.24,29.2c-11.59,11.89-40.91,38.23-76.66,60-24,14.64-47.13,25-68.72,30.73-26,6.93-49.86,7.21-71,.83L.25,232.54.61,220.4l255.8-110.52a5.5,5.5,0,0,1,3.88-.18c24.86,8.09,68,9.47,132.55-29.86,43-26.22,73.63-57,77.88-61.94l4.19-5.13"/><path class="cls-10" d="M.64,275.48S.1,266.31.1,263.56L256.24,142a5.5,5.5,0,0,1,5.1.2C340.68,187.77,466.7,64.77,468,63.55l5.16-5.38h0a157.4,157.4,0,0,1-4,19.43h0c-11.64,10.66-37.55,33.05-69.55,52.42-25.38,15.36-49.28,25.55-71,30.27-26.68,5.8-50.24,3.4-70.09-7.11Z"/><path class="cls-11" d="M103.44,175.83c48.42,22.35,77.6,34.74,77.6,77.58a77.58,77.58,0,1,1-155.16,0h0C25.86,210.57,54.58,175.62,103.44,175.83Z"/><g class="cls-12"><path class="cls-13" d="M103.44,269.27h0a25.86,25.86,0,1,1,25.86-25.86h0a25.89,25.89,0,0,1-25.87,25.86Z"/><line class="cls-14" x1="-135.39" y1="199.61" x2="179.49" y2="202.54"/></g><path class="cls-11" d="M413.76,256.41a77.58,77.58,0,1,1-155.16,0h0c0-42.85,29.16-55.23,77.58-77.58C385,178.63,413.76,213.57,413.76,256.41Z"/><g class="cls-15"><path class="cls-13" d="M336.18,269.27h0A25.86,25.86,0,1,1,362,243.41h0a25.89,25.89,0,0,1-25.87,25.86Z"/><line class="cls-14" x1="452.19" y1="203.27" x2="231.23" y2="203.72"/></g><polygon class="cls-10" points="26.93 107.84 30.56 93.83 196.74 24.66 222.05 24.7 26.93 107.84"/></svg>